<svg width="452.267" height="452.267" xmlns="http://www.w3.org/2000/svg">
 <g>
  <title>background</title>
  <rect fill="none" id="canvas_background" height="454.267" width="454.267" y="-1" x="-1"/>
 </g>

 <g>
  <title>Layer 1</title>
  <g id="svg_5"/>
  <g id="svg_6"/>
  <g id="svg_7"/>
  <g id="svg_8"/>
  <g id="svg_9"/>
  <g id="svg_10"/>
  <g id="svg_11"/>
  <g id="svg_12"/>
  <g id="svg_13"/>
  <g id="svg_14"/>
  <g id="svg_15"/>
  <g id="svg_16"/>
  <g id="svg_17"/>
  <g id="svg_18"/>
  <g id="svg_19"/>
  <g stroke="null" id="svg_26">
   <path stroke="null" fill="#4c4c4c" d="m390.72213,159.3514a39.58111,34.64964 0 0 0 -27.97065,-29.10569l-26.3874,-67.1048a26.38741,23.09976 0 0 0 -26.12353,-15.93883l-162.28254,0a26.38741,23.09976 0 0 0 -25.33191,15.70783l-26.3874,65.71881a40.37273,35.34263 0 0 0 -35.35913,30.72268a6.72879,5.89044 0 0 0 0,1.73249l0,59.36638a26.38741,23.09976 0 0 0 13.19371,19.86579l0,31.99316a19.92249,17.44032 0 0 0 19.92249,17.44032l39.5811,0a19.79055,17.32482 0 0 0 19.65862,-17.44032l0,-28.7592l145.13072,0l0,28.8747a19.79055,17.32482 0 0 0 19.79056,17.32482l39.5811,0a19.79055,17.32482 0 0 0 19.79056,-17.32482l0,-32.10866a26.38741,23.09976 0 0 0 13.1937,-19.86579l0,-59.36638a6.46491,5.65944 0 0 0 0,-1.73249zm-283.6646,37.99911a19.79055,17.32482 0 1 1 19.79055,-17.32482a19.79055,17.32482 0 0 1 -19.79055,17.32482zm191.30869,0l-145.13073,0l0,-34.64964l145.13073,0l0,34.64964zm-187.74639,-69.29928l24.54029,-61.44536a13.1937,11.54988 0 0 1 12.79789,-7.85392l162.28254,0a13.1937,11.54988 0 0 1 13.1937,7.96942l24.14447,61.32986l-237.48664,0l0.52775,0zm233.92434,69.29928a19.79055,17.32482 0 1 1 19.79056,-17.32482a19.79055,17.32482 0 0 1 -19.79056,17.32482z" id="svg_24"/>
  </g>
  <g id="svg_20" stroke="null">
   <path fill="#4c4c4c" d="m300.32812,354.63352c0,39.62917 -32.29457,71.69461 -72.19461,71.69461c-39.90554,0 -72.19461,-32.07091 -72.19461,-71.69461c0,-39.62917 32.29458,-71.69461 72.19461,-71.69461c39.90554,0 72.19461,32.07091 72.19461,71.69461zm-11.28041,0c0,-33.43729 -27.24813,-60.49233 -60.9142,-60.49233c-33.67047,0 -60.9142,27.05942 -60.9142,60.49233c0,33.43728 27.24813,60.49232 60.9142,60.49232c33.67047,0 60.9142,-27.05942 60.9142,-60.49232z" id="svg_4" stroke="null"/>
   <rect id="svg_1" height="49.439971" width="10.879994" y="330.091884" x="209.325157" fill="#4c4c4c"/>
   <rect id="svg_2" height="49.439971" width="10.879994" y="330.583963" x="235.187781" fill="#4c4c4c"/>
  </g>
 </g>
</svg>
