<svg xmlns="http://www.w3.org/2000/svg" width="452.2669982910156" height="452.2669982910156" style=""><rect id="backgroundrect" width="100%" height="100%" x="0" y="0" fill="none" stroke="none"/>
 <g style="">
  <title>background</title>
  <rect x="-1" y="-1" width="228.13259887695312" height="228.13259887695312" id="canvas_background" fill="none"/>
 </g>

 <g style="" class="currentLayer">
  <title>Layer 1</title>
  <g id="svg_5"/>
  <g id="svg_6"/>
  <g id="svg_7"/>
  <g id="svg_8"/>
  <g id="svg_9"/>
  <g id="svg_10"/>
  <g id="svg_11"/>
  <g id="svg_12"/>
  <g id="svg_13"/>
  <g id="svg_14"/>
  <g id="svg_15"/>
  <g id="svg_16"/>
  <g id="svg_17"/>
  <g id="svg_18"/>
  <g id="svg_19"/>
  <g id="svg_26" stroke="null">
   <path id="svg_24" d="m390.72213,159.3514a39.58111,34.64964 0 0 0 -27.97065,-29.10569l-26.3874,-67.1048a26.38741,23.09976 0 0 0 -26.12353,-15.93883l-162.28254,0a26.38741,23.09976 0 0 0 -25.33191,15.70783l-26.3874,65.71881a40.37273,35.34263 0 0 0 -35.35913,30.72268a6.72879,5.89044 0 0 0 0,1.73249l0,59.36638a26.38741,23.09976 0 0 0 13.19371,19.86579l0,31.99316a19.92249,17.44032 0 0 0 19.92249,17.44032l39.5811,0a19.79055,17.32482 0 0 0 19.65862,-17.44032l0,-28.7592l145.13072,0l0,28.8747a19.79055,17.32482 0 0 0 19.79056,17.32482l39.5811,0a19.79055,17.32482 0 0 0 19.79056,-17.32482l0,-32.10866a26.38741,23.09976 0 0 0 13.1937,-19.86579l0,-59.36638a6.46491,5.65944 0 0 0 0,-1.73249zm-283.6646,37.99911a19.79055,17.32482 0 1 1 19.79055,-17.32482a19.79055,17.32482 0 0 1 -19.79055,17.32482zm191.30869,0l-145.13073,0l0,-34.64964l145.13073,0l0,34.64964zm-187.74639,-69.29928l24.54029,-61.44536a13.1937,11.54988 0 0 1 12.79789,-7.85392l162.28254,0a13.1937,11.54988 0 0 1 13.1937,7.96942l24.14447,61.32986l-237.48664,0l0.52775,0zm233.92434,69.29928a19.79055,17.32482 0 1 1 19.79056,-17.32482a19.79055,17.32482 0 0 1 -19.79056,17.32482z" fill="#ffffff" stroke="null"/>
  </g>
 <path fill="#ffffff" stroke="#ffffff" stroke-width="5" stroke-dashoffset="" fill-rule="evenodd" marker-start="" marker-mid="" marker-end="" id="svg_1" d="M225.38897727929162,271.2760162271124 C183.380991602452,271.29395020821005 149.33734521752854,305.17721841324874 149.31932635035002,346.993284237952 C149.31932635035002,388.80935006265435 183.37498531339523,422.6926182677006 225.38897727929162,422.7045742550174 C267.39696295608303,422.6926182677006 301.4406093410538,388.80935006265435 301.45262191916737,346.9992622315865 C301.4466156300618,305.17721841324874 267.4029692451398,271.2760162271124 225.38897727929162,271.2760162271124 zM283.4277484538368,346.993284237952 C283.40972958671455,358.60852596736163 279.92608193265437,369.3988045682563 274.0038809207129,378.46144299433956 L193.7718716740713,298.61935934107595 C202.87139959809537,292.71310158054337 213.71275134912491,289.2398872497712 225.3949835683486,289.21597527503997 C257.4445419858002,289.28173320550457 283.37369185237253,315.0947099362146 283.4277484538368,346.993284237952 zM167.33819352657483,346.993284237952 C167.36221868280333,335.3780425084529 170.84586633687167,324.5758079201827 176.7860862159758,315.5131694941572 L257.000076595447,395.3612311410527 C247.89454238237374,401.25553291426144 237.05919692040038,404.722769251356 225.38297099018644,404.7407032324519 C193.3394188618407,404.7108132640374 167.4042627062096,378.8918585396485 167.33819352657483,346.993284237952 z" style="color: rgb(76, 76, 76);" class=""/></g>
</svg>