<svg width="452.267" height="452.267" xmlns="http://www.w3.org/2000/svg">

 <g>
  <title>background</title>
  <rect fill="none" id="canvas_background" height="402" width="582" y="-1" x="-1"/>
 </g>
 <g>
  <title>Layer 1</title>
  <g stroke="null" id="svg_1">
   <path stroke="null" id="svg_2" fill="#ffffff" d="m92.167812,310.296831l0,101.333113l271.949959,0l0,-101.333113l-271.949959,0zm255.632974,89.17312l-239.315989,0l0,-77.013128l239.315989,0l0,77.013128z"/>
   <rect stroke="null" id="svg_4" fill="#ffffff" height="52.693143" width="16.316985" y="334.616816" x="364.117771"/>
   <rect stroke="null" id="svg_36" fill="#ffffff" height="52.693143" width="16.316985" y="335.033473" x="128.551767"/>
   <rect stroke="null" id="svg_37" fill="#ffffff" height="52.693143" width="16.316985" y="335.033479" x="148.71833"/>
   <rect stroke="null" id="svg_38" fill="#ffffff" height="52.693143" width="16.316985" y="335.03347" x="168.468204"/>
   <rect stroke="null" id="svg_39" fill="#ffffff" height="52.693143" width="16.316985" y="335.033489" x="188.551435"/>
   <rect stroke="null" id="svg_40" fill="#ffffff" height="52.693143" width="16.316985" y="335.03349" x="208.717983"/>
  </g>
  <g id="svg_5"/>
  <g id="svg_6"/>
  <g id="svg_7"/>
  <g id="svg_8"/>
  <g id="svg_9"/>
  <g id="svg_10"/>
  <g id="svg_11"/>
  <g id="svg_12"/>
  <g id="svg_13"/>
  <g id="svg_14"/>
  <g id="svg_15"/>
  <g id="svg_16"/>
  <g id="svg_17"/>
  <g id="svg_18"/>
  <g id="svg_19"/>
  <g stroke="null" id="svg_26">
   <path stroke="null" fill="#ffffff" d="m390.722131,159.351403a39.581107,34.649638 0 0 0 -27.970649,-29.105696l-26.387405,-67.104799a26.387405,23.099759 0 0 0 -26.12353,-15.938833l-162.282538,0a26.387405,23.099759 0 0 0 -25.331908,15.707836l-26.387405,65.718813a40.372729,35.342631 0 0 0 -35.359122,30.722679a6.728788,5.890438 0 0 0 0,1.732482l0,59.36638a26.387405,23.099759 0 0 0 13.193702,19.865792l0,31.993166a19.92249,17.440318 0 0 0 19.92249,17.440318l39.581107,0a19.790553,17.324819 0 0 0 19.658616,-17.440318l0,-28.759199l145.130725,0l0,28.874698a19.790553,17.324819 0 0 0 19.790553,17.324819l39.581107,0a19.790553,17.324819 0 0 0 19.790553,-17.324819l0,-32.108664a26.387405,23.099759 0 0 0 13.193702,-19.865792l0,-59.36638a6.464914,5.659441 0 0 0 0,-1.732482zm-283.664599,37.999103a19.790553,17.324819 0 1 1 19.790553,-17.324819a19.790553,17.324819 0 0 1 -19.790553,17.324819zm191.308683,0l-145.130725,0l0,-34.649638l145.130725,0l0,34.649638zm-187.746383,-69.299276l24.540286,-61.445358a13.193702,11.549879 0 0 1 12.797891,-7.853918l162.282538,0a13.193702,11.549879 0 0 1 13.193702,7.969417l24.144475,61.329859l-237.486641,0l0.527748,0zm233.924341,69.299276a19.790553,17.324819 0 1 1 19.790553,-17.324819a19.790553,17.324819 0 0 1 -19.790553,17.324819z" id="svg_24"/>
  </g>
 </g>
</svg>