<svg width="452.267" height="452.267" xmlns="http://www.w3.org/2000/svg">
 <g>
  <title>background</title>
  <rect x="-1" y="-1" width="229.269848" height="229.269848" id="canvas_background" fill="none"/>
 </g>

 <g>
  <title>Layer 1</title>
  <g id="svg_5"/>
  <g id="svg_6"/>
  <g id="svg_7"/>
  <g id="svg_8"/>
  <g id="svg_9"/>
  <g id="svg_10"/>
  <g id="svg_11"/>
  <g id="svg_12"/>
  <g id="svg_13"/>
  <g id="svg_14"/>
  <g id="svg_15"/>
  <g id="svg_16"/>
  <g id="svg_17"/>
  <g id="svg_18"/>
  <g id="svg_19"/>
  <g id="svg_26" stroke="null">
   <path id="svg_24" d="m390.72213,159.3514a39.58111,34.64964 0 0 0 -27.97065,-29.10569l-26.3874,-67.1048a26.38741,23.09976 0 0 0 -26.12353,-15.93883l-162.28254,0a26.38741,23.09976 0 0 0 -25.33191,15.70783l-26.3874,65.71881a40.37273,35.34263 0 0 0 -35.35913,30.72268a6.72879,5.89044 0 0 0 0,1.73249l0,59.36638a26.38741,23.09976 0 0 0 13.19371,19.86579l0,31.99316a19.92249,17.44032 0 0 0 19.92249,17.44032l39.5811,0a19.79055,17.32482 0 0 0 19.65862,-17.44032l0,-28.7592l145.13072,0l0,28.8747a19.79055,17.32482 0 0 0 19.79056,17.32482l39.5811,0a19.79055,17.32482 0 0 0 19.79056,-17.32482l0,-32.10866a26.38741,23.09976 0 0 0 13.1937,-19.86579l0,-59.36638a6.46491,5.65944 0 0 0 0,-1.73249zm-283.6646,37.99911a19.79055,17.32482 0 1 1 19.79055,-17.32482a19.79055,17.32482 0 0 1 -19.79055,17.32482zm191.30869,0l-145.13073,0l0,-34.64964l145.13073,0l0,34.64964zm-187.74639,-69.29928l24.54029,-61.44536a13.1937,11.54988 0 0 1 12.79789,-7.85392l162.28254,0a13.1937,11.54988 0 0 1 13.1937,7.96942l24.14447,61.32986l-237.48664,0l0.52775,0zm233.92434,69.29928a19.79055,17.32482 0 1 1 19.79056,-17.32482a19.79055,17.32482 0 0 1 -19.79056,17.32482z" fill="#ffffff" stroke="null"/>
  </g>
  <g stroke="null" id="svg_20">
   <path stroke="null" id="svg_4" d="m300.32812,354.63352c0,39.62917 -32.29457,71.69461 -72.19461,71.69461c-39.90554,0 -72.19461,-32.07091 -72.19461,-71.69461c0,-39.62917 32.29458,-71.69461 72.19461,-71.69461c39.90554,0 72.19461,32.07091 72.19461,71.69461zm-11.28041,0c0,-33.43729 -27.24813,-60.49233 -60.9142,-60.49233c-33.67047,0 -60.9142,27.05942 -60.9142,60.49233c0,33.43728 27.24813,60.49232 60.9142,60.49232c33.67047,0 60.9142,-27.05942 60.9142,-60.49232z" fill="#ffffff"/>
   <polyline stroke-linecap="round" id="svg_2" points="222.70887451685832,339.7227631620299 222.70887451685832,339.2661465448766 222.25225789970506,339.2661465448766 221.79564128255174,339.2661465448766 220.88240804824522,339.2661465448766 219.51255819678545,339.2661465448766 217.2294751110191,340.6359963963364 214.9463920252528,342.4624628649495 213.1199255566397,344.2889293335625 209.92360923656685,346.1153958021756 208.0971427679538,347.94186227078865 206.27067629934072,349.3117121222485 205.81405968218746,350.68156197370826 204.90082644788095,352.0514118251681 204.4442098307277,353.42126167662786 203.98759321357437,355.2477281452409 203.98759321357437,357.074194613854 203.5309765964211,358.900661082467 203.98759321357437,360.7271275510801 203.98759321357437,361.1837441682334 204.4442098307277,362.0969774025399 204.90082644788095,363.01021063684647 206.72729291649398,363.01021063684647 208.0971427679538,365.29329372261276 210.83684247087336,366.20652695691933 214.03315879094623,368.4896100426856 216.31624187671258,369.40284327699214 219.9691748139387,369.85945989414546 223.16549113401157,369.85945989414546 225.90519083693118,370.3160765112987 234.58090656284324,371.6859263627585 241.43015582014218,372.14254297991175 245.99632199167488,372.14254297991175 " opacity="0.5" fill-opacity="null" stroke-opacity="null" stroke-width="null" stroke="null" fill="none"/>
   <rect stroke="null" transform="rotate(135 227.76051330566406,354.2879333496094) " id="svg_23" height="126.126093" width="11.462336" y="291.224891" x="222.029355" fill-opacity="null" stroke-opacity="null" stroke-width="null" fill="#ffffff"/>
  </g>
 </g>
</svg>
