<?xml version="1.0" encoding="utf-8"?>
<svg id="master-artboard" viewBox="0 0 1400 980" version="1.1" xmlns="http://www.w3.org/2000/svg" x="0px" y="0px" style="enable-background:new 0 0 1400 980;" width="1400px" height="980px"><g transform="matrix(32.666664632161456, 0, 0, 32.666664632161456, 210.00009155273415, -2.842170943040401e-14)"><path fill="#69F" fill-rule="evenodd" d="M29.2192593,10.4148148 L25,7.16888889 L25,0.999259259 C24.9995911,0.447263809 24.5519956,-1.51439406e-07 24,-2.59847699e-13 L21,-2.59847699e-13 C20.4477153,-2.57873969e-13 20,0.44771525 20,1 L20,3.3237037 L16.2192593,0.414814815 C15.500742,-0.138158487 14.4999988,-0.138158487 13.7814815,0.414814815 L0.781481509,10.4148148 C0.288718927,10.7929872 -0.000105176609,11.3788484 2.87313354e-08,12 L2.87313354e-08,28 C2.87313344e-08,28.530433 0.210713709,29.0391408 0.585786466,29.4142136 C0.960859222,29.7892863 1.46956705,30 2.00000003,30 L28,30 C28.530433,30 29.0391408,29.7892863 29.4142136,29.4142136 C29.7892863,29.0391408 30,28.530433 30,28 L30,12 C30,11.3785185 29.7111111,10.7933333 29.2192593,10.4148148" style="fill: rgb(31, 255, 50);"/></g></svg>