<?xml version="1.0" encoding="utf-8"?>
<svg id="master-artboard" viewBox="0 0 1400 980" version="1.1" xmlns="http://www.w3.org/2000/svg" x="0px" y="0px" style="enable-background:new 0 0 1400 980;" width="1400px" height="980px"><g transform="matrix(32.66666870117187, 0, 0, 32.66666870117187, 209.99990844726557, -0.00000766335409707608)"><path fill="#69F" fill-rule="evenodd" d="M19.5 15L15 13.5l1.5-6-6 7.5 4.5 1.5-1.5 6 6-7.5zm4.5 0c0 4.97-4.03 9-9 9s-9-4.03-9-9a9 9 0 0 1 18 0zm.546 7.424a1.501 1.501 0 0 0-2.121 0 1.498 1.498 0 0 0 0 2.12l1.06 1.061a1.498 1.498 0 0 0 2.122 0 1.501 1.501 0 0 0 0-2.121l-1.061-1.06zM5.454 7.575a1.501 1.501 0 0 0 2.121 0 1.498 1.498 0 0 0 0-2.121l-1.06-1.06a1.498 1.498 0 0 0-2.121 0 1.501 1.501 0 0 0 0 2.12l1.06 1.061zm19.092 0l1.06-1.06a1.501 1.501 0 0 0 0-2.121 1.498 1.498 0 0 0-2.12 0l-1.061 1.06a1.498 1.498 0 0 0 0 2.121 1.501 1.501 0 0 0 2.121 0zM5.454 22.424l-1.06 1.06a1.501 1.501 0 0 0 0 2.121 1.498 1.498 0 0 0 2.12 0l1.061-1.06a1.498 1.498 0 0 0 0-2.122 1.501 1.501 0 0 0-2.121 0zM4.5 15A1.5 1.5 0 0 0 3 13.5H1.5a1.5 1.5 0 1 0 0 3H3A1.5 1.5 0 0 0 4.5 15zm24-1.5H27a1.5 1.5 0 1 0 0 3h1.5a1.5 1.5 0 0 0 0-3zM15 25.5a1.5 1.5 0 0 0-1.5 1.5v1.5a1.5 1.5 0 0 0 3 0V27a1.5 1.5 0 0 0-1.5-1.5zM13.5 3V1.5a1.5 1.5 0 1 1 3 0V3a1.5 1.5 0 0 1-3 0z" style="fill: rgb(31, 255, 50);"/></g></svg>