<?xml version="1.0" encoding="utf-8"?>
<svg id="master-artboard" viewBox="0 0 1400 980" version="1.1" xmlns="http://www.w3.org/2000/svg" x="0px" y="0px" style="enable-background:new 0 0 1400 980;" width="1400px" height="980px"><g transform="matrix(31.612901256930442, 0, 0, 31.612901256930442, 447.0968509797125, -2.842170943040401e-14)"><path fill="#69F" fill-rule="evenodd" d="M1.5,3 L13.5,3 C14.3284271,3 15,2.32842712 15,1.5 C15,0.671572875 14.3284271,0 13.5,0 L1.5,0 C0.671572875,0 0,0.671572875 0,1.5 C0,2.32842712 0.671572875,3 1.5,3 M13.5,4.5 L1.5,4.5 C0.671572875,4.5 0,5.17157288 0,6 C0,6.82842712 0.671572875,7.5 1.5,7.5 L13.5,7.5 C14.3284271,7.5 15,6.82842712 15,6 C15,5.17157288 14.3284271,4.5 13.5,4.5 M13.5,9 L1.5,9 C0.671572875,9 0,9.67157288 0,10.5 C0,11.3284271 0.671572875,12 1.5,12 L13.5,12 C14.3284271,12 15,11.3284271 15,10.5 C15,9.67157288 14.3284271,9 13.5,9 M13.5,13.5 L1.5,13.5 C0.671572875,13.5 0,14.1715729 0,15 C0,15.8284271 0.671572875,16.5 1.5,16.5 L13.5,16.5 C14.3284271,16.5 15,15.8284271 15,15 C15,14.1715729 14.3284271,13.5 13.5,13.5 M13.5,18 L1.5,18 C0.671572875,18 0,18.6715729 0,19.5 C0,20.3284271 0.671572875,21 1.5,21 L13.5,21 C14.3284271,21 15,20.3284271 15,19.5 C15,18.6715729 14.3284271,18 13.5,18 M13.5,22.5 L1.5,22.5 C0.671572875,22.5 0,23.1715729 0,24 C0,24.8284271 0.671572875,25.5 1.5,25.5 L13.5,25.5 C14.3284271,25.5 15,24.8284271 15,24 C15,23.1715729 14.3284271,22.5 13.5,22.5 M13.5,27 L1.5,27 C0.671572875,27 0,27.6715729 0,28.5 C0,29.3284271 0.671572875,30 1.5,30 L13.5,30 C14.3284271,30 15,29.3284271 15,28.5 C15,27.6715729 14.3284271,27 13.5,27" transform="translate(.18 .5)" style="fill: rgb(31, 255, 50);"/></g></svg>