<?xml version="1.0" encoding="utf-8"?>
<svg id="master-artboard" viewBox="0 0 1400 980" version="1.1" xmlns="http://www.w3.org/2000/svg" x="0px" y="0px" style="enable-background:new 0 0 1400 980;" width="1400px" height="980px"><g transform="matrix(32.666666666666664, 0, 0, 32.666666666666664, 193.6665800749185, 5.684341886080802e-14)"><g fill="#69F" fill-rule="evenodd" transform="translate(.329)">
    <path d="M28.5,27 L3,27 L3,1.5 C3,0.671572875 2.32842712,0 1.5,0 C0.671572875,0 1.01453063e-16,0.671572875 0,1.5 L0,28.5 C0,29.33 0.672,30 1.5,30 L28.5,30 C29.3284271,30 30,29.3284271 30,28.5 C30,27.6715729 29.3284271,27 28.5,27" style="fill: rgb(31, 255, 50);"/>
    <path d="M29.208,12.177 C28.720119,11.9160736 28.1282174,11.9449 27.668,12.252 L24.582,14.31 L19.342,3.83 C19.1021993,3.35252737 18.626799,3.03839181 18.0935336,3.00503699 C17.5602682,2.97168216 17.0494291,3.22413016 16.752,3.668 L11.928,10.904 L8.7,6.6 C8.31276894,6.08347371 7.63818577,5.87311981 7.026,6.078 C6.41312969,6.28114349 5.99955767,6.8543398 6,7.5 L6,22.5 C6,23.33 6.672,24 7.5,24 L28.5,24 C29.329,24 30,23.33 30,22.5 L30,13.5 C30,12.948 29.695,12.44 29.208,12.177" style="fill: rgb(31, 255, 50);"/>
  <path d="M 9.515595436096191 27.657073974609375 L -1.744404673576355 27.657073974609375 L -1.744404673576355 25.977073669433594 L 2.7655951976776123 21.44707489013672 C 4.145595550537109 20.053741455078125 5.052262306213379 19.060407638549805 5.485594749450684 18.46707534790039 C 5.925595283508301 17.873741149902344 6.2555952072143555 17.297073364257812 6.475595474243164 16.73707389831543 C 6.688928604125977 16.170406341552734 6.795595169067383 15.563740730285645 6.795595169067383 14.917074203491211 C 6.795595169067383 14.003740310668945 6.518928527832031 13.280406951904297 5.965595245361328 12.747074127197266 C 5.412261962890625 12.213740348815918 4.6422624588012695 11.947073936462402 3.655595541000366 11.947073936462402 C 2.9489285945892334 11.947073936462402 2.2755954265594482 12.063740730285645 1.6355955600738525 12.297074317932129 C 1.0022621154785156 12.530406951904297 0.2955954074859619 12.953741073608398 -0.4844045639038086 13.567073822021484 L -1.5244046449661255 12.247074127197266 C 0.05559539794921875 10.933740615844727 1.7755954265594482 10.277074813842773 3.6355955600738525 10.277074813842773 C 5.24226188659668 10.277074813842773 6.5055952072143555 10.690406799316406 7.425595283508301 11.517074584960938 C 8.33892822265625 12.337074279785156 8.795595169067383 13.443740844726562 8.795595169067383 14.837074279785156 C 8.795595169067383 15.92374038696289 8.48892879486084 16.997074127197266 7.8755950927734375 18.05707359313965 C 7.268928527832031 19.123741149902344 6.128928184509277 20.467073440551758 4.455595016479492 22.087074279785156 L 0.7055952548980713 25.7570743560791 L 0.7055952548980713 25.857074737548828 L 9.515595436096191 25.857074737548828 L 9.515595436096191 27.657073974609375 Z" transform="matrix(0.9731345176696777, 0, 0, 0.9731345176696777, 21.875932693481445, -8.732154846191406)" style="fill: rgb(51, 51, 51); white-space: pre; color: rgb(51, 51, 51);"/></g></g></svg>