<?xml version="1.0" encoding="utf-8"?>
<svg id="master-artboard" viewBox="0 0 1400 980" version="1.1" xmlns="http://www.w3.org/2000/svg" x="0px" y="0px" style="enable-background:new 0 0 1400 980;" width="1400px" height="980px"><g transform="matrix(32.666666666666664, 0, 0, 32.666666666666664, 193.6665800749185, 5.684341886080802e-14)"><g fill="#69F" fill-rule="evenodd" transform="translate(.329)">
    <path d="M28.5,27 L3,27 L3,1.5 C3,0.671572875 2.32842712,0 1.5,0 C0.671572875,0 1.01453063e-16,0.671572875 0,1.5 L0,28.5 C0,29.33 0.672,30 1.5,30 L28.5,30 C29.3284271,30 30,29.3284271 30,28.5 C30,27.6715729 29.3284271,27 28.5,27" style="fill: rgb(31, 255, 50);"/>
    <path d="M29.208,12.177 C28.720119,11.9160736 28.1282174,11.9449 27.668,12.252 L24.582,14.31 L19.342,3.83 C19.1021993,3.35252737 18.626799,3.03839181 18.0935336,3.00503699 C17.5602682,2.97168216 17.0494291,3.22413016 16.752,3.668 L11.928,10.904 L8.7,6.6 C8.31276894,6.08347371 7.63818577,5.87311981 7.026,6.078 C6.41312969,6.28114349 5.99955767,6.8543398 6,7.5 L6,22.5 C6,23.33 6.672,24 7.5,24 L28.5,24 C29.329,24 30,23.33 30,22.5 L30,13.5 C30,12.948 29.695,12.44 29.208,12.177" style="fill: rgb(31, 255, 50);"/>
  </g></g></svg>